HIERARCHY
ROOT Hips
{
	OFFSET 0.000000 97.167313 0.000000
	CHANNELS 6 Xposition Yposition Zposition Xrotation Yrotation Zrotation
	JOINT Spine
	{
		OFFSET 0.000000 13.784798 0.064400
		CHANNELS 3 Xrotation Yrotation Zrotation
		JOINT Spine1
		{
			OFFSET 0.000000 12.037903 0.404700
			CHANNELS 3 Xrotation Yrotation Zrotation
			JOINT Spine2
			{
				OFFSET 0.000000 17.795601 0.420200
				CHANNELS 3 Xrotation Yrotation Zrotation
				JOINT Neck
				{
					OFFSET 0.000000 39.131302 11.954600
					CHANNELS 3 Xrotation Yrotation Zrotation
					JOINT Head
					{
						OFFSET 0.000000 14.456192 15.627699
						CHANNELS 3 Xrotation Yrotation Zrotation
						JOINT HeadTop_End
						{
							OFFSET 0.000000 15.703506 7.603401
							CHANNELS 3 Xrotation Yrotation Zrotation
							End Site
							{
								OFFSET 0.000000 17.447403 0.000000
							}
						}
					}
				}
				JOINT LeftShoulder
				{
					OFFSET 17.399500 24.608795 1.168800
					CHANNELS 3 Xrotation Yrotation Zrotation
					JOINT LeftArm
					{
						OFFSET 18.980635 5.765305 1.818600
						CHANNELS 3 Xrotation Yrotation Zrotation
						JOINT LeftForeArm
						{
							OFFSET 49.290169 0.000000 0.000000
							CHANNELS 3 Xrotation Yrotation Zrotation
							JOINT LeftHand
							{
								OFFSET 31.562012 0.000000 0.000000
								CHANNELS 3 Xrotation Yrotation Zrotation
								JOINT LeftHandThumb1
								{
									OFFSET 6.133995 -4.388519 7.076070
									CHANNELS 3 Xrotation Yrotation Zrotation
									JOINT LeftHandThumb2
									{
										OFFSET 6.037666 -3.485840 3.485847
										CHANNELS 3 Xrotation Yrotation Zrotation
										JOINT LeftHandThumb3
										{
											OFFSET 6.496506 -3.750763 3.750761
											CHANNELS 3 Xrotation Yrotation Zrotation
											JOINT LeftHandThumb4
											{
												OFFSET 5.616882 -3.242905 3.242910
												CHANNELS 3 Xrotation Yrotation Zrotation
												End Site
												{
													OFFSET -1.254608 7.132141 0.375429
												}
											}
										}
									}
								}
								JOINT LeftHandPinky1
								{
									OFFSET 18.920792 -0.453171 -11.426712
									CHANNELS 3 Xrotation Yrotation Zrotation
									JOINT LeftHandPinky2
									{
										OFFSET 4.919586 0.000000 0.000000
										CHANNELS 3 Xrotation Yrotation Zrotation
										JOINT LeftHandPinky3
										{
											OFFSET 5.233047 0.000000 0.000000
											CHANNELS 3 Xrotation Yrotation Zrotation
											JOINT LeftHandPinky4
											{
												OFFSET 5.571716 0.000000 0.000000
												CHANNELS 3 Xrotation Yrotation Zrotation
												End Site
												{
													OFFSET -3.459808 4.342407 -0.466164
												}
											}
										}
									}
								}
								JOINT LeftHandRing1
								{
									OFFSET 22.726120 -0.094986 -6.500475
									CHANNELS 3 Xrotation Yrotation Zrotation
									JOINT LeftHandRing2
									{
										OFFSET 6.408615 0.000000 0.000000
										CHANNELS 3 Xrotation Yrotation Zrotation
										JOINT LeftHandRing3
										{
											OFFSET 6.150223 0.000000 0.000000
											CHANNELS 3 Xrotation Yrotation Zrotation
											JOINT LeftHandRing4
											{
												OFFSET 6.145386 0.000000 0.000000
												CHANNELS 3 Xrotation Yrotation Zrotation
												End Site
												{
													OFFSET -3.671402 4.923981 -0.202372
												}
											}
										}
									}
								}
								JOINT LeftHandMiddle1
								{
									OFFSET 23.373947 0.000000 0.000001
									CHANNELS 3 Xrotation Yrotation Zrotation
									JOINT LeftHandMiddle2
									{
										OFFSET 6.996567 0.000000 0.000000
										CHANNELS 3 Xrotation Yrotation Zrotation
										JOINT LeftHandMiddle3
										{
											OFFSET 7.015945 0.000000 0.000000
											CHANNELS 3 Xrotation Yrotation Zrotation
											JOINT LeftHandMiddle4
											{
												OFFSET 7.721573 0.000000 0.000000
												CHANNELS 3 Xrotation Yrotation Zrotation
												End Site
												{
													OFFSET -4.651108 6.158463 0.251582
												}
											}
										}
									}
								}
								JOINT LeftHandIndex1
								{
									OFFSET 21.310577 -0.490082 6.209344
									CHANNELS 3 Xrotation Yrotation Zrotation
									JOINT LeftHandIndex2
									{
										OFFSET 7.536453 0.000000 0.000000
										CHANNELS 3 Xrotation Yrotation Zrotation
										JOINT LeftHandIndex3
										{
											OFFSET 7.512344 0.000000 0.000000
											CHANNELS 3 Xrotation Yrotation Zrotation
											JOINT LeftHandIndex4
											{
												OFFSET 10.212402 0.000000 0.000001
												CHANNELS 3 Xrotation Yrotation Zrotation
												End Site
												{
													OFFSET -5.180801 8.690506 1.388433
												}
											}
										}
									}
								}
							}
						}
					}
				}
				JOINT RightShoulder
				{
					OFFSET -17.399500 24.608795 1.168800
					CHANNELS 3 Xrotation Yrotation Zrotation
					JOINT RightArm
					{
						OFFSET -18.980635 5.765305 1.818600
						CHANNELS 3 Xrotation Yrotation Zrotation
						JOINT RightForeArm
						{
							OFFSET -49.290169 0.000000 0.000000
							CHANNELS 3 Xrotation Yrotation Zrotation
							JOINT RightHand
							{
								OFFSET -31.562012 0.000000 0.000000
								CHANNELS 3 Xrotation Yrotation Zrotation
								JOINT RightHandThumb1
								{
									OFFSET -6.133995 -4.388519 7.076070
									CHANNELS 3 Xrotation Yrotation Zrotation
									JOINT RightHandThumb2
									{
										OFFSET -6.037666 -3.485840 3.485847
										CHANNELS 3 Xrotation Yrotation Zrotation
										JOINT RightHandThumb3
										{
											OFFSET -6.496506 -3.750763 3.750761
											CHANNELS 3 Xrotation Yrotation Zrotation
											JOINT RightHandThumb4
											{
												OFFSET -5.616882 -3.242905 3.242910
												CHANNELS 3 Xrotation Yrotation Zrotation
												End Site
												{
													OFFSET 1.254608 7.132141 0.375429
												}
											}
										}
									}
								}
								JOINT RightHandIndex1
								{
									OFFSET -21.310577 -0.490082 6.209344
									CHANNELS 3 Xrotation Yrotation Zrotation
									JOINT RightHandIndex2
									{
										OFFSET -7.536453 0.000000 0.000000
										CHANNELS 3 Xrotation Yrotation Zrotation
										JOINT RightHandIndex3
										{
											OFFSET -7.512344 0.000000 0.000000
											CHANNELS 3 Xrotation Yrotation Zrotation
											JOINT RightHandIndex4
											{
												OFFSET -10.212402 0.000000 0.000001
												CHANNELS 3 Xrotation Yrotation Zrotation
												End Site
												{
													OFFSET 5.180801 8.690506 1.388433
												}
											}
										}
									}
								}
								JOINT RightHandMiddle1
								{
									OFFSET -23.373947 0.000000 0.000001
									CHANNELS 3 Xrotation Yrotation Zrotation
									JOINT RightHandMiddle2
									{
										OFFSET -6.996567 0.000000 0.000000
										CHANNELS 3 Xrotation Yrotation Zrotation
										JOINT RightHandMiddle3
										{
											OFFSET -7.015945 0.000000 0.000000
											CHANNELS 3 Xrotation Yrotation Zrotation
											JOINT RightHandMiddle4
											{
												OFFSET -7.721573 0.000000 0.000000
												CHANNELS 3 Xrotation Yrotation Zrotation
												End Site
												{
													OFFSET 4.651108 6.158463 0.251582
												}
											}
										}
									}
								}
								JOINT RightHandRing1
								{
									OFFSET -22.726120 -0.094986 -6.500475
									CHANNELS 3 Xrotation Yrotation Zrotation
									JOINT RightHandRing2
									{
										OFFSET -6.408615 0.000000 0.000000
										CHANNELS 3 Xrotation Yrotation Zrotation
										JOINT RightHandRing3
										{
											OFFSET -6.150223 0.000000 0.000000
											CHANNELS 3 Xrotation Yrotation Zrotation
											JOINT RightHandRing4
											{
												OFFSET -6.145386 0.000000 0.000000
												CHANNELS 3 Xrotation Yrotation Zrotation
												End Site
												{
													OFFSET 3.671402 4.923981 -0.202372
												}
											}
										}
									}
								}
								JOINT RightHandPinky1
								{
									OFFSET -18.920792 -0.453171 -11.426712
									CHANNELS 3 Xrotation Yrotation Zrotation
									JOINT RightHandPinky2
									{
										OFFSET -4.919586 0.000000 0.000000
										CHANNELS 3 Xrotation Yrotation Zrotation
										JOINT RightHandPinky3
										{
											OFFSET -5.233047 0.000000 0.000000
											CHANNELS 3 Xrotation Yrotation Zrotation
											JOINT RightHandPinky4
											{
												OFFSET -5.571716 0.000000 0.000000
												CHANNELS 3 Xrotation Yrotation Zrotation
												End Site
												{
													OFFSET 3.459808 4.342407 -0.466164
												}
											}
										}
									}
								}
							}
						}
					}
				}
			}
		}
	}
	JOINT LeftUpLeg
	{
		OFFSET 19.899099 -7.885101 -3.429500
		CHANNELS 3 Xrotation Yrotation Zrotation
		JOINT LeftLeg
		{
			OFFSET 1.745560 -36.997807 10.304700
			CHANNELS 3 Xrotation Yrotation Zrotation
			JOINT LeftFoot
			{
				OFFSET -1.745558 -29.803308 -13.615400
				CHANNELS 3 Xrotation Yrotation Zrotation
				JOINT LeftToeBase
				{
					OFFSET 1.181900 -18.539904 15.226099
					CHANNELS 3 Xrotation Yrotation Zrotation
					JOINT LeftToe_End
					{
						OFFSET -0.863701 1.402801 16.534700
						CHANNELS 3 Xrotation Yrotation Zrotation
						End Site
						{
							OFFSET 0.000000 16.616566 0.000000
						}
					}
				}
			}
		}
	}
	JOINT RightUpLeg
	{
		OFFSET -19.899099 -7.885101 -3.429500
		CHANNELS 3 Xrotation Yrotation Zrotation
		JOINT RightLeg
		{
			OFFSET -1.745560 -36.997807 10.304700
			CHANNELS 3 Xrotation Yrotation Zrotation
			JOINT RightFoot
			{
				OFFSET 1.745558 -29.803308 -13.615400
				CHANNELS 3 Xrotation Yrotation Zrotation
				JOINT RightToeBase
				{
					OFFSET -1.181900 -18.539904 15.226099
					CHANNELS 3 Xrotation Yrotation Zrotation
					JOINT RightToe_End
					{
						OFFSET 0.863701 1.402801 16.534700
						CHANNELS 3 Xrotation Yrotation Zrotation
						End Site
						{
							OFFSET 0.000000 16.616566 0.000000
						}
					}
				}
			}
		}
	}
}
MOTION
Frames: 4
Frame Time: 0.033333
9.256138 28.584290 16.590355 -50.525317 -8.325166 39.349328 62.743921 -22.942730 4.350060 9.014723 -6.321028 -0.560400 9.124299 -6.394247 0.168022 1.288456 1.890533 -1.683970 -3.668564 5.555535 -9.863321 0.000001 -0.000000 0.000001 13.328255 -50.619136 10.411745 -16.591778 24.167506 -1.353276 -0.000030 -122.744660 -0.000059 -18.218444 -10.207672 -20.967248 -6.000713 -6.126806 4.616745 5.975228 12.647533 1.348328 -7.335821 -0.421732 13.147344 -0.000002 -0.000004 -0.000000 0.566933 4.734091 -23.882624 0.380775 2.079452 -20.751716 0.380800 2.079476 -20.751686 0.000003 -0.000002 -0.000004 0.581439 4.766487 -24.229845 0.393468 2.112592 -21.098214 0.393465 2.112563 -21.098157 -0.000001 -0.000001 0.000005 0.255170 3.844824 -14.656273 0.215184 1.574732 -15.561203 0.215166 1.574730 -15.561182 0.000003 -0.000002 0.000006 0.069890 2.623042 -2.564645 0.184693 1.460890 -14.410306 0.184704 1.460877 -14.410284 -0.000005 0.000001 0.000002 1.244775 15.236564 3.373243 -18.782281 -29.180764 81.431667 0.000013 39.421758 -0.000004 14.778876 -11.154670 -43.282912 -13.964554 17.994673 -8.156015 6.417166 -14.929457 -2.153388 -10.976901 24.544847 -6.960832 0.000001 -0.000002 0.000002 20.747880 12.104784 -50.816368 0.000000 -0.000002 0.000015 -0.000002 0.000003 0.000012 -0.000001 -0.000001 0.000001 1.633651 1.228372 -51.010633 -0.000000 -0.000047 0.000642 0.000003 0.000040 -0.000420 0.000001 0.000000 -0.000009 -7.567660 -6.576338 -50.472386 0.005857 -0.233765 2.870701 0.014351 0.365700 -4.493768 -0.000000 0.000001 -0.000007 -21.962072 -10.468563 -48.927278 -0.000000 -0.000490 0.005984 0.000270 0.049228 -0.604178 0.000001 -0.000001 0.000004 33.697155 -1.066332 -153.557433 19.035387 20.502852 146.238612 43.843582 14.132794 -43.396812 -17.057562 -0.000001 -0.000002 0.000000 0.000001 -0.000000 -24.382360 -32.638674 32.161926 72.184752 -31.007041 -1.183156 12.980318 -10.884794 -17.286184 -33.435234 0.000008 0.000007 -0.000001 0.000000 -0.000003 
11.146278 30.601730 13.058601 -44.398972 -8.013262 42.382553 62.324677 -20.344997 5.284525 8.819486 -6.192877 -0.393431 8.914202 -6.296879 0.320136 1.499459 1.638130 -1.284129 -6.440619 4.835099 -10.374086 -0.000001 0.000001 0.000001 12.710291 -49.949467 10.228434 -23.879578 7.879214 -1.485614 -0.000006 -115.353480 -0.000046 -14.361600 4.811016 -25.547218 -6.001102 -6.126951 4.616982 6.029876 13.042297 1.387355 -7.116386 0.923819 13.498429 -0.000000 0.000001 -0.000001 0.584474 4.773854 -24.286597 0.395711 2.118427 -21.159255 0.395705 2.118363 -21.158760 -0.000001 0.000005 -0.000003 0.599067 4.805113 -24.634158 0.408603 2.151405 -21.505289 0.408639 2.151484 -21.505978 -0.000001 0.000001 0.000005 0.265864 3.885013 -15.060723 0.226527 1.614872 -15.968542 0.226517 1.614874 -15.968588 -0.000006 -0.000001 0.000004 0.072302 2.664463 -2.982274 0.195584 1.502539 -14.830748 0.195562 1.502567 -14.830907 0.000001 -0.000003 -0.000001 1.793490 10.248122 1.965845 -29.377887 -29.734624 80.528928 0.000006 28.459455 -0.000026 18.343996 -3.750471 -45.133207 -13.964647 17.994786 -8.156032 6.417099 -14.929298 -2.153351 -10.977072 24.545463 -6.960640 0.000004 -0.000001 -0.000001 20.748045 12.104920 -50.816150 -0.000001 -0.000006 0.000093 -0.000002 -0.000029 0.000433 -0.000000 -0.000003 0.000001 1.633638 1.228362 -51.010458 0.000002 -0.000058 0.000755 -0.000000 -0.000004 -0.000002 0.000002 0.000002 -0.000006 -7.567771 -6.576465 -50.472257 0.005858 -0.233766 2.870828 0.014348 0.365666 -4.493412 -0.000000 0.000001 -0.000002 -21.962186 -10.468369 -48.927514 0.000007 -0.000493 0.006119 0.000256 0.049176 -0.603772 0.000001 0.000000 0.000004 62.659957 39.962453 -128.009930 79.927079 49.421531 73.168115 -24.762883 21.041525 -20.800004 -11.854318 0.000010 0.000009 -0.000001 0.000002 0.000001 -21.255496 -29.504150 38.249462 61.453500 -35.369025 -4.110323 1.384395 -9.023161 -48.703886 -36.603387 0.000001 0.000006 0.000003 0.000001 0.000001 
11.454582 33.019821 7.140572 -37.313586 -6.358438 44.911981 61.811580 -18.144186 6.336296 8.663464 -6.036348 -0.246803 8.739959 -6.137271 0.440749 1.237708 1.378721 -1.122095 -9.576693 3.364550 -11.399063 -0.000000 0.000000 0.000000 9.943132 -49.818085 5.318638 -33.678799 -3.483403 -4.549137 -0.000275 -98.466124 -0.000298 -16.530157 0.093355 -28.735309 -6.002201 -6.127317 4.617636 6.160330 13.991059 1.479897 -6.647795 3.984326 14.278077 0.000002 0.000002 -0.000004 0.626095 4.868435 -25.265884 0.432376 2.210727 -22.129852 0.432253 2.210431 -22.126645 -0.000002 0.000001 0.000001 0.642022 4.896321 -25.606034 0.445855 2.243561 -22.476614 0.445662 2.243093 -22.471655 -0.000003 -0.000001 0.000003 0.292537 3.980662 -16.034036 0.254758 1.710444 -16.941622 0.254593 1.709918 -16.936385 0.000002 0.000002 0.000006 0.079284 2.764540 -3.991136 0.222744 1.601624 -15.833879 0.222591 1.601086 -15.828555 0.000002 0.000001 -0.000001 1.939691 10.138753 4.112679 -41.261262 -24.377770 73.283593 0.000005 17.845524 -0.000009 14.687314 3.169150 -47.953215 -13.964475 17.994576 -8.155995 6.417226 -14.929612 -2.153408 -10.976736 24.544257 -6.960997 -0.000001 0.000001 -0.000002 20.748042 12.104358 -50.817833 0.000002 -0.000002 -0.000001 -0.000003 0.000132 -0.001599 -0.000001 -0.000003 0.000001 1.633755 1.228459 -51.012152 -0.000001 -0.000012 0.000093 -0.000002 0.000180 -0.002230 0.000001 0.000002 -0.000006 -7.567669 -6.575935 -50.473845 0.005857 -0.233682 2.869844 0.014360 0.365834 -4.495442 0.000001 0.000002 -0.000007 -21.962024 -10.468184 -48.927985 0.000005 -0.000431 0.005388 0.000268 0.049372 -0.606032 -0.000002 -0.000000 0.000006 5.423248 65.959021 -49.159194 113.316049 17.992417 20.567769 -31.699512 5.262163 -7.781293 -9.739107 -0.000741 0.264676 0.000001 -0.000002 -0.000000 -26.077597 -21.784424 36.994961 47.217668 -36.051764 -9.209492 -0.076361 -5.989788 -62.689204 -33.106347 -0.000008 0.000014 0.000003 -0.000000 -0.000000 
10.769035 36.086086 0.119720 -30.378113 -3.674573 47.857974 60.935464 -16.776065 7.447693 8.551111 -5.839142 -0.132690 8.610964 -5.921273 0.515723 0.774690 1.121237 -1.405288 -12.625810 1.244437 -13.206719 0.000001 0.000000 0.000001 4.400929 -49.428409 -4.808658 -43.204283 -10.507605 -10.387861 0.000101 -83.230288 0.000117 -15.460681 -13.698997 -23.694135 -5.999448 -6.126400 4.615989 6.368993 15.494559 1.619978 -6.035533 8.451580 15.374508 0.000001 -0.000001 -0.000001 0.693801 5.001293 -26.849209 0.494787 2.358300 -23.695752 0.494861 2.358428 -23.697136 0.000000 -0.000001 -0.000004 0.711450 5.035709 -27.194861 0.509211 2.390877 -24.044028 0.509106 2.390610 -24.041127 -0.000004 0.000001 0.000005 0.339181 4.134601 -17.613234 0.303450 1.862753 -18.503691 0.303433 1.862679 -18.502912 0.000001 0.000000 0.000008 0.092500 2.937804 -5.604652 0.269901 1.759381 -17.441882 0.269861 1.759220 -17.440738 -0.000003 0.000001 0.000001 1.582102 13.044443 7.789818 -49.371503 -15.984086 64.763014 0.000004 11.299419 -0.000011 7.713018 8.261721 -49.847168 -13.964247 17.994290 -8.155904 6.417407 -14.930052 -2.153512 -10.976251 24.542555 -6.961509 0.000003 -0.000002 0.000002 20.747243 12.104279 -50.817195 -0.000001 0.000000 0.000021 -0.000001 0.000136 -0.001621 -0.000001 -0.000001 -0.000001 1.633701 1.228418 -51.011346 0.000002 -0.000013 0.000196 -0.000002 0.000174 -0.002134 -0.000001 0.000002 -0.000006 -7.567307 -6.575872 -50.472912 0.005855 -0.233714 2.870142 0.014361 0.365813 -4.495172 0.000001 0.000001 -0.000003 -21.961053 -10.468681 -48.926325 0.000004 -0.000446 0.005490 0.000268 0.049361 -0.605856 -0.000001 -0.000002 0.000007 -24.217877 45.004581 -1.602781 108.219573 -4.568257 2.416297 -26.571109 5.277982 -8.328534 -8.980318 -0.004263 0.651188 0.000000 0.000004 0.000000 -38.854187 -16.256931 32.016597 41.403442 -24.643326 -12.101067 10.637642 -11.471005 -59.979450 -29.890936 0.000012 -0.000016 -0.000000 0.000000 -0.000000 
